<?xml version="1.0" standalone="no"?>
<!DOCTYPE svg PUBLIC "-//W3C//DTD SVG 20010904//EN"
 "http://www.w3.org/TR/2001/REC-SVG-20010904/DTD/svg10.dtd">
<svg version="1.0" xmlns="http://www.w3.org/2000/svg"
 width="469.000000pt" height="469.000000pt" viewBox="0 0 469.000000 469.000000"
 preserveAspectRatio="xMidYMid meet">
<metadata>
Created by potrace 1.11, written by Peter Selinger 2001-2013
</metadata>
<g transform="translate(0.000000,469.000000) scale(0.100000,-0.100000)"
fill="#000000" stroke="none">
<path d="M1229 4334 l-293 -293 -77 74 c-79 76 -121 95 -169 80 -32 -10 -188
-169 -196 -200 -12 -48 13 -96 86 -170 l70 -70 -326 -322 c-381 -376 -361
-340 -246 -452 38 -36 167 -160 286 -276 120 -115 224 -214 232 -218 8 -5 24
-5 35 -2 12 4 156 142 321 308 l301 301 111 -115 c61 -64 194 -203 296 -309
102 -107 233 -244 292 -304 l107 -111 -68 -65 c-38 -36 -137 -130 -221 -210
-84 -80 -174 -165 -200 -190 -26 -25 -119 -113 -206 -197 -88 -83 -184 -174
-214 -203 -30 -29 -125 -118 -210 -200 -212 -202 -224 -214 -410 -390 -90 -85
-180 -172 -201 -193 -41 -40 -56 -87 -44 -134 8 -34 337 -368 374 -381 26 -9
44 -8 86 2 18 5 149 136 435 436 19 20 114 119 210 220 96 101 192 202 214
224 21 23 86 91 145 152 105 109 385 402 476 499 26 28 87 91 136 141 l88 92
153 -161 c84 -88 169 -177 188 -197 35 -37 308 -323 410 -429 53 -56 352 -369
435 -456 487 -511 511 -535 527 -536 79 -7 78 -8 141 50 135 125 302 302 309
327 13 49 -3 84 -67 147 -54 54 -252 242 -394 376 -25 24 -84 80 -131 125
-152 144 -424 403 -460 436 -19 18 -109 103 -200 190 -91 87 -181 173 -201
191 -183 171 -339 324 -337 330 3 7 190 206 358 380 83 85 373 390 402 422 14
15 29 27 34 27 5 0 221 -211 479 -470 258 -258 475 -470 482 -470 13 0 31 28
39 58 51 199 59 263 59 442 0 142 -6 210 -27 300 -5 25 -12 56 -15 70 -11 60
-69 214 -118 317 -52 106 -179 306 -247 386 l-32 38 71 72 c85 88 103 113 103
150 0 44 -22 77 -109 160 -70 67 -86 77 -117 77 -50 0 -68 -12 -157 -98 l-77
-77 -288 288 c-158 158 -293 287 -299 287 -10 0 -119 -109 -456 -454 -129
-132 -163 -173 -159 -189 3 -11 124 -139 269 -284 144 -145 263 -267 263 -272
0 -5 -19 -25 -42 -46 -24 -20 -75 -67 -113 -103 -59 -56 -209 -196 -361 -337
-17 -16 -82 -77 -144 -135 -141 -132 -184 -170 -190 -170 -6 0 -54 45 -280
260 -180 171 -197 187 -418 398 l-153 146 286 286 c157 157 285 292 285 299 0
28 -33 64 -297 328 -168 168 -286 278 -303 283 -26 7 -44 -9 -321 -286z m581
-49 l255 -255 -73 0 -72 0 -185 185 c-101 102 -188 185 -193 185 -4 0 -304
-297 -666 -660 l-658 -660 -64 0 c-35 0 -64 2 -64 4 0 6 1453 1456 1459 1456
3 0 121 -115 261 -255z m1953 -209 c390 -390 436 -441 534 -586 93 -138 201
-366 217 -455 3 -16 10 -45 15 -63 6 -20 6 -30 0 -27 -5 4 -9 14 -9 23 0 29
-114 251 -175 342 -32 47 -82 117 -112 155 -52 66 -848 865 -862 865 -3 0 -85
-79 -181 -175 l-175 -176 -45 6 c-100 13 -110 -4 143 250 128 128 238 234 244
234 7 1 190 -176 406 -393z"/>
</g>
</svg>
